<svg xmlns="http://www.w3.org/2000/svg" width="24.072" height="24.072" viewBox="0 0 24.072 24.072">
  <path id="Icon_awesome-plus-circle" data-name="Icon awesome-plus-circle" d="M12.6.563A12.036,12.036,0,1,0,24.634,12.6,12.034,12.034,0,0,0,12.6.563Zm6.989,13.395A.584.584,0,0,1,19,14.54H14.54V19a.584.584,0,0,1-.582.582H11.239A.584.584,0,0,1,10.657,19V14.54H6.192a.584.584,0,0,1-.582-.582V11.239a.584.584,0,0,1,.582-.582h4.465V6.192a.584.584,0,0,1,.582-.582h2.718a.584.584,0,0,1,.582.582v4.465H19a.584.584,0,0,1,.582.582Z" transform="translate(-0.563 -0.563)"/>
</svg>
