<svg xmlns="http://www.w3.org/2000/svg" width="31.56" height="21.04" viewBox="0 0 31.56 21.04">
  <path id="Icon_awesome-eye" data-name="Icon awesome-eye" d="M31.37,14.22A17.574,17.574,0,0,0,15.78,4.5,17.577,17.577,0,0,0,.191,14.221a1.773,1.773,0,0,0,0,1.6A17.574,17.574,0,0,0,15.78,25.54,17.577,17.577,0,0,0,31.37,15.82,1.773,1.773,0,0,0,31.37,14.22ZM15.78,22.91a7.89,7.89,0,1,1,7.89-7.89A7.89,7.89,0,0,1,15.78,22.91Zm0-13.15a5.222,5.222,0,0,0-1.387.208,2.622,2.622,0,0,1-3.666,3.666A5.248,5.248,0,1,0,15.78,9.76Z" transform="translate(0 -4.5)"/>
</svg>
